<svg width="500" height="500" viewBox="0 0 500 500" fill="none" xmlns="http://www.w3.org/2000/svg">
<path d="M0 50C0 22.3858 22.3858 0 50 0H450C477.614 0 500 22.3858 500 50V450C500 477.614 477.614 500 450 500H50C22.3858 500 0 477.614 0 450V50Z" fill="url(#paint0_linear_1_3)"/>
<path d="M159.676 232.75C146.176 232.75 133.676 230.583 122.176 226.25C110.676 221.75 100.676 215.5 92.1758 207.5C83.8424 199.333 77.3424 189.75 72.6758 178.75C68.0091 167.75 65.6758 155.667 65.6758 142.5C65.6758 129.333 68.0091 117.25 72.6758 106.25C77.3424 95.25 83.9258 85.75 92.4258 77.75C100.926 69.5833 110.926 63.3333 122.426 59C133.926 54.5 146.426 52.25 159.926 52.25C174.592 52.25 187.926 54.8333 199.926 60C212.092 65 222.259 72.4167 230.426 82.25L207.176 104.25C201.009 97.4167 194.092 92.3333 186.426 89C178.759 85.5 170.509 83.75 161.676 83.75C153.009 83.75 145.092 85.1667 137.926 88C130.759 90.8333 124.509 94.9167 119.176 100.25C113.842 105.417 109.676 111.583 106.676 118.75C103.842 125.917 102.426 133.833 102.426 142.5C102.426 151.167 103.842 159.083 106.676 166.25C109.676 173.417 113.842 179.667 119.176 185C124.509 190.167 130.759 194.167 137.926 197C145.092 199.833 153.009 201.25 161.676 201.25C170.509 201.25 178.759 199.583 186.426 196.25C194.092 192.75 201.009 187.5 207.176 180.5L230.426 202.5C222.259 212.333 212.092 219.833 199.926 225C187.926 230.167 174.509 232.75 159.676 232.75Z" fill="white"/>
<path d="M339.631 232.75C325.964 232.75 313.298 230.5 301.631 226C290.131 221.5 280.048 215.167 271.381 207C262.881 198.833 256.298 189.333 251.631 178.5C246.964 167.5 244.631 155.5 244.631 142.5C244.631 129.5 246.964 117.583 251.631 106.75C256.298 95.75 262.881 86.1667 271.381 78C280.048 69.8333 290.131 63.5 301.631 59C313.298 54.5 325.964 52.25 339.631 52.25C353.298 52.25 365.881 54.5 377.381 59C388.881 63.5 398.881 69.8333 407.381 78C416.048 86 422.714 95.5 427.381 106.5C432.048 117.5 434.381 129.5 434.381 142.5C434.381 155.5 432.048 167.5 427.381 178.5C422.714 189.5 416.048 199.083 407.381 207.25C398.881 215.25 388.881 221.5 377.381 226C365.881 230.5 353.298 232.75 339.631 232.75ZM339.631 201.25C347.964 201.25 355.631 199.833 362.631 197C369.631 194.167 375.714 190.167 380.881 185C386.214 179.667 390.298 173.417 393.131 166.25C396.131 159.083 397.631 151.167 397.631 142.5C397.631 133.833 396.131 125.917 393.131 118.75C390.298 111.583 386.214 105.417 380.881 100.25C375.714 94.9167 369.631 90.8333 362.631 88C355.631 85.1667 347.964 83.75 339.631 83.75C331.298 83.75 323.548 85.1667 316.381 88C309.381 90.8333 303.214 94.9167 297.881 100.25C292.714 105.583 288.631 111.833 285.631 119C282.798 126 281.381 133.833 281.381 142.5C281.381 151 282.798 158.833 285.631 166C288.631 173.167 292.714 179.417 297.881 184.75C303.214 190.083 309.381 194.167 316.381 197C323.548 199.833 331.298 201.25 339.631 201.25Z" fill="white"/>
<path d="M157.59 452.75C143.757 452.75 130.507 450.833 117.84 447C105.173 443.167 95.0065 438.25 87.3398 432.25L100.09 404.25C107.257 409.75 116.007 414.25 126.34 417.75C136.673 421.25 147.173 423 157.84 423C166.34 423 173.257 422.083 178.59 420.25C183.923 418.417 187.757 416 190.09 413C192.59 409.833 193.84 406.25 193.84 402.25C193.84 397.25 191.923 393.25 188.09 390.25C184.423 387.25 179.59 384.833 173.59 383C167.59 381.167 160.923 379.417 153.59 377.75C146.257 376.083 138.923 374.167 131.59 372C124.257 369.667 117.507 366.667 111.34 363C105.34 359.333 100.423 354.5 96.5898 348.5C92.9232 342.5 91.0898 334.833 91.0898 325.5C91.0898 315.833 93.6732 307 98.8398 299C104.173 290.833 112.173 284.333 122.84 279.5C133.507 274.667 147.007 272.25 163.34 272.25C174.007 272.25 184.59 273.583 195.09 276.25C205.59 278.917 214.84 282.75 222.84 287.75L211.34 315.75C203.34 311.083 195.173 307.667 186.84 305.5C178.673 303.167 170.673 302 162.84 302C154.507 302 147.673 303 142.34 305C137.007 307 133.173 309.667 130.84 313C128.507 316.167 127.34 319.75 127.34 323.75C127.34 328.75 129.173 332.75 132.84 335.75C136.673 338.75 141.59 341.167 147.59 343C153.59 344.667 160.257 346.333 167.59 348C174.923 349.667 182.257 351.667 189.59 354C196.923 356.167 203.59 359.083 209.59 362.75C215.757 366.25 220.673 371 224.34 377C228.173 382.833 230.09 390.333 230.09 399.5C230.09 409.167 227.423 418 222.09 426C216.923 434 208.923 440.5 198.09 445.5C187.423 450.333 173.923 452.75 157.59 452.75Z" fill="white"/>
<path d="M342.293 452.75C328.793 452.75 316.293 450.583 304.793 446.25C293.293 441.75 283.293 435.5 274.793 427.5C266.46 419.333 259.96 409.75 255.293 398.75C250.626 387.75 248.293 375.667 248.293 362.5C248.293 349.333 250.626 337.25 255.293 326.25C259.96 315.25 266.543 305.75 275.043 297.75C283.543 289.583 293.543 283.333 305.043 279C316.543 274.5 329.043 272.25 342.543 272.25C357.21 272.25 370.543 274.833 382.543 280C394.71 285 404.876 292.417 413.043 302.25L389.793 324.25C383.626 317.417 376.71 312.333 369.043 309C361.376 305.5 353.126 303.75 344.293 303.75C335.626 303.75 327.71 305.167 320.543 308C313.376 310.833 307.126 314.917 301.793 320.25C296.46 325.417 292.293 331.583 289.293 338.75C286.46 345.917 285.043 353.833 285.043 362.5C285.043 371.167 286.46 379.083 289.293 386.25C292.293 393.417 296.46 399.667 301.793 405C307.126 410.167 313.376 414.167 320.543 417C327.71 419.833 335.626 421.25 344.293 421.25C353.126 421.25 361.376 419.583 369.043 416.25C376.71 412.75 383.626 407.5 389.793 400.5L413.043 422.5C404.876 432.333 394.71 439.833 382.543 445C370.543 450.167 357.126 452.75 342.293 452.75Z" fill="white"/>
<defs>
<linearGradient id="paint0_linear_1_3" x1="0" y1="0" x2="500" y2="500" gradientUnits="userSpaceOnUse">
<stop offset="0.159" stop-color="#594D9F"/>
<stop offset="0.301" stop-color="#714C9C"/>
<stop offset="0.622" stop-color="#C22C89"/>
<stop offset="0.841" stop-color="#D72087"/>
</linearGradient>
</defs>
</svg>
