<svg width="962" height="283" viewBox="0 0 962 283" fill="none" xmlns="http://www.w3.org/2000/svg">
<path d="M96 118C96 157.212 127.788 189 167 189V118H238C238 78.7878 206.212 47 167 47C127.788 47 96 78.7878 96 118Z" fill="url(#paint0_linear_3_5)"/>
<path d="M167 270C81.9482 270 13 201.947 13 118" stroke="url(#paint1_linear_3_5)" stroke-width="25"/>
<path d="M167 223C108.876 223 59 176.09 59 118.223C59 60.3561 108.876 13 167 13" stroke="url(#paint2_linear_3_5)" stroke-width="25"/>
<path d="M377.24 157.16C369.59 157.16 362.48 155.945 355.91 153.515C349.43 151.085 343.805 147.665 339.035 143.255C334.265 138.755 330.53 133.49 327.83 127.46C325.22 121.43 323.915 114.86 323.915 107.75C323.915 100.55 325.22 93.98 327.83 88.04C330.53 82.01 334.265 76.79 339.035 72.38C343.805 67.88 349.43 64.415 355.91 61.985C362.48 59.555 369.59 58.34 377.24 58.34C384.98 58.34 392.09 59.555 398.57 61.985C405.05 64.415 410.675 67.88 415.445 72.38C420.215 76.79 423.905 82.01 426.515 88.04C429.215 93.98 430.565 100.55 430.565 107.75C430.565 114.86 429.215 121.43 426.515 127.46C423.905 133.49 420.215 138.755 415.445 143.255C410.675 147.665 405.05 151.085 398.57 153.515C392.09 155.945 384.98 157.16 377.24 157.16ZM377.24 131.375C380.21 131.375 382.955 130.835 385.475 129.755C388.085 128.675 390.335 127.145 392.225 125.165C394.205 123.095 395.735 120.62 396.815 117.74C397.895 114.77 398.435 111.44 398.435 107.75C398.435 104.06 397.895 100.775 396.815 97.895C395.735 94.925 394.205 92.45 392.225 90.47C390.335 88.4 388.085 86.825 385.475 85.745C382.955 84.665 380.21 84.125 377.24 84.125C374.27 84.125 371.48 84.665 368.87 85.745C366.35 86.825 364.1 88.4 362.12 90.47C360.23 92.45 358.745 94.925 357.665 97.895C356.585 100.775 356.045 104.06 356.045 107.75C356.045 111.44 356.585 114.77 357.665 117.74C358.745 120.62 360.23 123.095 362.12 125.165C364.1 127.145 366.35 128.675 368.87 129.755C371.48 130.835 374.27 131.375 377.24 131.375ZM490.459 156.35C484.069 156.35 478.759 155 474.529 152.3C470.389 149.51 467.329 145.325 465.349 139.745C463.369 134.075 462.379 126.875 462.379 118.145C462.379 109.235 463.279 101.99 465.079 96.41C466.969 90.74 469.984 86.555 474.124 83.855C478.264 81.155 483.709 79.805 490.459 79.805C496.939 79.805 502.879 81.38 508.279 84.53C513.679 87.59 517.999 92 521.239 97.76C524.479 103.43 526.099 110.225 526.099 118.145C526.099 126.065 524.479 132.905 521.239 138.665C517.999 144.335 513.679 148.7 508.279 151.76C502.879 154.82 496.939 156.35 490.459 156.35ZM441.184 181.19V81.155H470.209V91.145L470.344 118.145L471.694 145.145V181.19H441.184ZM483.169 132.59C485.419 132.59 487.444 132.05 489.244 130.97C491.044 129.89 492.484 128.27 493.564 126.11C494.644 123.95 495.184 121.295 495.184 118.145C495.184 114.905 494.644 112.205 493.564 110.045C492.484 107.885 491.044 106.265 489.244 105.185C487.444 104.105 485.419 103.565 483.169 103.565C480.919 103.565 478.894 104.105 477.094 105.185C475.294 106.265 473.854 107.885 472.774 110.045C471.694 112.205 471.154 114.905 471.154 118.145C471.154 121.295 471.694 123.95 472.774 126.11C473.854 128.27 475.294 129.89 477.094 130.97C478.894 132.05 480.919 132.59 483.169 132.59ZM576.48 156.35C567.48 156.35 559.605 154.685 552.855 151.355C546.195 148.025 541.02 143.48 537.33 137.72C533.64 131.87 531.795 125.3 531.795 118.01C531.795 110.54 533.595 103.925 537.195 98.165C540.885 92.405 545.88 87.905 552.18 84.665C558.57 81.425 565.725 79.805 573.645 79.805C580.935 79.805 587.64 81.245 593.76 84.125C599.97 87.005 604.92 91.28 608.61 96.95C612.39 102.62 614.28 109.64 614.28 118.01C614.28 119.09 614.235 120.305 614.145 121.655C614.055 122.915 613.965 124.085 613.875 125.165H557.04V110.45H597.675L586.2 114.365C586.2 111.485 585.66 109.055 584.58 107.075C583.59 105.005 582.195 103.43 580.395 102.35C578.595 101.18 576.435 100.595 573.915 100.595C571.395 100.595 569.19 101.18 567.3 102.35C565.5 103.43 564.105 105.005 563.115 107.075C562.125 109.055 561.63 111.485 561.63 114.365V118.955C561.63 122.105 562.26 124.805 563.52 127.055C564.78 129.305 566.58 131.015 568.92 132.185C571.26 133.265 574.095 133.805 577.425 133.805C580.845 133.805 583.635 133.355 585.795 132.455C588.045 131.555 590.385 130.205 592.815 128.405L608.745 144.47C605.145 148.34 600.69 151.31 595.38 153.38C590.16 155.36 583.86 156.35 576.48 156.35ZM675.208 79.805C680.878 79.805 686.008 80.975 690.598 83.315C695.188 85.565 698.788 89.12 701.398 93.98C704.098 98.84 705.448 105.14 705.448 112.88V155H674.938V118.145C674.938 113.555 674.128 110.315 672.508 108.425C670.888 106.445 668.683 105.455 665.893 105.455C663.823 105.455 661.888 105.95 660.088 106.94C658.378 107.84 656.983 109.37 655.903 111.53C654.913 113.69 654.418 116.615 654.418 120.305V155H623.908V81.155H652.933V102.755L647.128 96.545C650.008 90.965 653.878 86.78 658.738 83.99C663.688 81.2 669.178 79.805 675.208 79.805ZM754.878 157.16C746.958 157.16 739.308 156.26 731.928 154.46C724.548 152.66 718.473 150.32 713.703 147.44L723.963 124.22C728.463 126.83 733.458 128.945 738.948 130.565C744.528 132.095 749.928 132.86 755.148 132.86C758.208 132.86 760.593 132.68 762.303 132.32C764.103 131.87 765.408 131.285 766.218 130.565C767.028 129.755 767.433 128.81 767.433 127.73C767.433 126.02 766.488 124.67 764.598 123.68C762.708 122.69 760.188 121.88 757.038 121.25C753.978 120.53 750.603 119.81 746.913 119.09C743.223 118.28 739.488 117.245 735.708 115.985C732.018 114.725 728.598 113.06 725.448 110.99C722.388 108.92 719.913 106.22 718.023 102.89C716.133 99.47 715.188 95.24 715.188 90.2C715.188 84.35 716.808 79.04 720.048 74.27C723.378 69.41 728.283 65.54 734.763 62.66C741.333 59.78 749.478 58.34 759.198 58.34C765.588 58.34 771.888 59.015 778.098 60.365C784.308 61.715 789.888 63.785 794.838 66.575L785.253 89.66C780.573 87.32 776.028 85.565 771.618 84.395C767.298 83.225 763.068 82.64 758.928 82.64C755.868 82.64 753.438 82.91 751.638 83.45C749.838 83.99 748.533 84.71 747.723 85.61C747.003 86.51 746.643 87.5 746.643 88.58C746.643 90.2 747.588 91.505 749.478 92.495C751.368 93.395 753.843 94.16 756.903 94.79C760.053 95.42 763.473 96.095 767.163 96.815C770.943 97.535 774.678 98.525 778.368 99.785C782.058 101.045 785.433 102.71 788.493 104.78C791.643 106.85 794.163 109.55 796.053 112.88C797.943 116.21 798.888 120.35 798.888 125.3C798.888 131.06 797.223 136.37 793.893 141.23C790.653 146 785.793 149.87 779.313 152.84C772.833 155.72 764.688 157.16 754.878 157.16ZM822.305 182.54C818.255 182.54 814.115 181.91 809.885 180.65C805.745 179.48 802.415 177.905 799.895 175.925L810.02 155C811.55 156.17 813.26 157.115 815.15 157.835C817.13 158.555 819.02 158.915 820.82 158.915C823.52 158.915 825.59 158.33 827.03 157.16C828.47 156.08 829.64 154.415 830.54 152.165L833.645 144.335L835.805 141.365L859.43 81.155H888.32L857.945 156.485C855.245 163.235 852.095 168.5 848.495 172.28C844.985 176.06 841.025 178.715 836.615 180.245C832.295 181.775 827.525 182.54 822.305 182.54ZM829.46 158.375L797.33 81.155H828.65L850.79 138.665L829.46 158.375ZM920.557 156.35C914.257 156.35 908.047 155.675 901.927 154.325C895.807 152.975 890.857 151.22 887.077 149.06L895.447 128.945C898.957 131.015 903.007 132.635 907.597 133.805C912.277 134.975 916.822 135.56 921.232 135.56C924.922 135.56 927.397 135.245 928.657 134.615C930.007 133.985 930.682 133.13 930.682 132.05C930.682 130.97 929.917 130.205 928.387 129.755C926.857 129.215 924.832 128.81 922.312 128.54C919.792 128.27 917.002 127.955 913.942 127.595C910.972 127.145 907.957 126.515 904.897 125.705C901.837 124.895 899.047 123.68 896.527 122.06C894.007 120.44 891.982 118.28 890.452 115.58C888.922 112.79 888.157 109.28 888.157 105.05C888.157 100.37 889.552 96.14 892.342 92.36C895.222 88.58 899.452 85.565 905.032 83.315C910.702 80.975 917.677 79.805 925.957 79.805C931.357 79.805 936.757 80.3 942.157 81.29C947.557 82.28 952.192 83.81 956.062 85.88L947.692 105.995C943.912 103.925 940.177 102.53 936.487 101.81C932.887 101 929.512 100.595 926.362 100.595C922.492 100.595 919.837 100.955 918.397 101.675C917.047 102.395 916.372 103.205 916.372 104.105C916.372 105.185 917.137 105.995 918.667 106.535C920.197 107.075 922.222 107.48 924.742 107.75C927.262 108.02 930.007 108.38 932.977 108.83C936.037 109.19 939.052 109.82 942.022 110.72C945.082 111.53 947.872 112.745 950.392 114.365C952.912 115.985 954.937 118.19 956.467 120.98C957.997 123.68 958.762 127.145 958.762 131.375C958.762 135.785 957.367 139.925 954.577 143.795C951.787 147.575 947.557 150.635 941.887 152.975C936.217 155.225 929.107 156.35 920.557 156.35Z" fill="url(#paint3_linear_3_5)"/>
<path d="M339.896 247H335.467V227.094H339.896V247ZM345.912 230.689H329.533V227.094H345.912V230.689ZM368.976 238.619H358.79V235.037H368.976V238.619ZM360.144 247H355.687V227.094H360.144V247ZM372.107 247H367.677V227.094H372.107V247ZM396.524 247H386.011V243.418H396.524V247ZM387.474 247H383.016V227.094H387.474V247ZM395.157 238.51H386.011V235.037H395.157V238.51ZM396.524 230.689H386.011V227.094H396.524V230.689ZM437.457 237.443C437.457 239.485 437.092 241.24 436.363 242.707C435.643 244.174 434.636 245.305 433.342 246.098C432.056 246.882 430.575 247.273 428.898 247.273C427.221 247.273 425.731 246.882 424.427 246.098C423.133 245.305 422.117 244.174 421.379 242.707C420.65 241.24 420.285 239.485 420.285 237.443V236.664C420.285 234.622 420.65 232.868 421.379 231.4C422.108 229.933 423.12 228.803 424.414 228.01C425.708 227.217 427.194 226.82 428.871 226.82C430.548 226.82 432.034 227.217 433.328 228.01C434.622 228.803 435.634 229.933 436.363 231.4C437.092 232.868 437.457 234.622 437.457 236.664V237.443ZM432.959 236.637C432.959 235.288 432.799 234.158 432.48 233.246C432.161 232.335 431.696 231.646 431.086 231.182C430.475 230.708 429.737 230.471 428.871 230.471C427.987 230.471 427.244 230.708 426.642 231.182C426.041 231.646 425.58 232.335 425.261 233.246C424.952 234.158 424.797 235.288 424.797 236.637V237.443C424.797 238.774 424.956 239.9 425.275 240.82C425.594 241.741 426.054 242.443 426.656 242.926C427.267 243.4 428.014 243.637 428.898 243.637C429.764 243.637 430.498 243.4 431.099 242.926C431.71 242.443 432.17 241.741 432.48 240.82C432.799 239.9 432.959 238.774 432.959 237.443V236.637ZM450.677 240.15V236.568H455.667C456.396 236.568 456.984 236.45 457.431 236.213C457.887 235.976 458.219 235.652 458.429 235.242C458.648 234.823 458.757 234.344 458.757 233.807C458.757 233.26 458.648 232.749 458.429 232.275C458.219 231.801 457.887 231.419 457.431 231.127C456.984 230.835 456.396 230.689 455.667 230.689H452.236V247H447.779V227.094H455.667C457.244 227.094 458.598 227.385 459.728 227.969C460.867 228.543 461.738 229.331 462.339 230.334C462.95 231.337 463.255 232.485 463.255 233.779C463.255 235.064 462.95 236.186 462.339 237.143C461.738 238.1 460.867 238.842 459.728 239.371C458.598 239.891 457.244 240.15 455.667 240.15H450.677ZM487.003 247H476.489V243.418H487.003V247ZM477.952 247H473.495V227.094H477.952V247ZM485.635 238.51H476.489V235.037H485.635V238.51ZM487.003 230.689H476.489V227.094H487.003V230.689ZM513.184 247H508.74L501.221 234.422V247H496.777V227.094H501.221L508.754 239.686V227.094H513.184V247ZM532.064 240.191H524.148V236.732H532.064V240.191ZM553.446 241.736C553.446 241.299 553.355 240.921 553.173 240.602C552.991 240.283 552.635 239.977 552.106 239.686C551.578 239.394 550.794 239.084 549.755 238.756C548.862 238.464 548.009 238.136 547.198 237.771C546.396 237.398 545.681 236.965 545.052 236.473C544.432 235.971 543.94 235.393 543.575 234.736C543.22 234.071 543.042 233.296 543.042 232.412C543.042 231.282 543.361 230.302 543.999 229.473C544.646 228.634 545.53 227.982 546.651 227.518C547.782 227.053 549.071 226.82 550.52 226.82C551.997 226.82 553.287 227.08 554.39 227.6C555.492 228.11 556.354 228.83 556.974 229.76C557.593 230.689 557.903 231.765 557.903 232.986H553.46C553.46 232.467 553.351 232.011 553.132 231.619C552.922 231.218 552.594 230.908 552.147 230.689C551.701 230.462 551.131 230.348 550.438 230.348C549.782 230.348 549.231 230.443 548.784 230.635C548.347 230.817 548.019 231.068 547.8 231.387C547.59 231.697 547.485 232.052 547.485 232.453C547.485 232.863 547.631 233.223 547.923 233.533C548.224 233.843 548.657 234.13 549.222 234.395C549.787 234.65 550.466 234.905 551.259 235.16C552.708 235.607 553.925 236.126 554.909 236.719C555.894 237.311 556.636 238.013 557.138 238.824C557.639 239.635 557.89 240.597 557.89 241.709C557.89 242.876 557.589 243.878 556.987 244.717C556.395 245.546 555.552 246.18 554.458 246.617C553.364 247.055 552.079 247.273 550.602 247.273C549.6 247.273 548.616 247.146 547.649 246.891C546.683 246.626 545.804 246.221 545.011 245.674C544.227 245.127 543.602 244.434 543.138 243.596C542.673 242.757 542.44 241.764 542.44 240.615H546.897C546.897 241.199 546.979 241.691 547.144 242.092C547.317 242.493 547.563 242.821 547.882 243.076C548.21 243.322 548.602 243.5 549.058 243.609C549.522 243.719 550.037 243.773 550.602 243.773C551.268 243.773 551.806 243.682 552.216 243.5C552.635 243.318 552.945 243.072 553.145 242.762C553.346 242.452 553.446 242.11 553.446 241.736ZM584.7 237.443C584.7 239.485 584.335 241.24 583.606 242.707C582.886 244.174 581.879 245.305 580.584 246.098C579.299 246.882 577.818 247.273 576.141 247.273C574.464 247.273 572.974 246.882 571.67 246.098C570.376 245.305 569.36 244.174 568.621 242.707C567.892 241.24 567.528 239.485 567.528 237.443V236.664C567.528 234.622 567.892 232.868 568.621 231.4C569.351 229.933 570.362 228.803 571.657 228.01C572.951 227.217 574.437 226.82 576.114 226.82C577.791 226.82 579.276 227.217 580.571 228.01C581.865 228.803 582.877 229.933 583.606 231.4C584.335 232.868 584.7 234.622 584.7 236.664V237.443ZM580.202 236.637C580.202 235.288 580.042 234.158 579.723 233.246C579.404 232.335 578.939 231.646 578.329 231.182C577.718 230.708 576.98 230.471 576.114 230.471C575.23 230.471 574.487 230.708 573.885 231.182C573.284 231.646 572.823 232.335 572.504 233.246C572.194 234.158 572.039 235.288 572.039 236.637V237.443C572.039 238.774 572.199 239.9 572.518 240.82C572.837 241.741 573.297 242.443 573.899 242.926C574.51 243.4 575.257 243.637 576.141 243.637C577.007 243.637 577.741 243.4 578.342 242.926C578.953 242.443 579.413 241.741 579.723 240.82C580.042 239.9 580.202 238.774 580.202 237.443V236.637ZM610.334 227.094V240.15C610.334 241.691 610.006 242.994 609.349 244.061C608.693 245.118 607.782 245.92 606.615 246.467C605.458 247.005 604.127 247.273 602.623 247.273C601.11 247.273 599.765 247.005 598.59 246.467C597.423 245.92 596.512 245.118 595.855 244.061C595.199 242.994 594.871 241.691 594.871 240.15V227.094H599.328V240.15C599.328 240.98 599.456 241.659 599.711 242.188C599.975 242.707 600.353 243.09 600.846 243.336C601.338 243.573 601.93 243.691 602.623 243.691C603.325 243.691 603.917 243.573 604.4 243.336C604.883 243.09 605.248 242.707 605.494 242.188C605.749 241.659 605.877 240.98 605.877 240.15V227.094H610.334ZM628.654 227.094C630.194 227.094 631.52 227.326 632.632 227.791C633.744 228.247 634.601 228.921 635.202 229.814C635.804 230.699 636.105 231.801 636.105 233.123C636.105 234.226 635.927 235.16 635.572 235.926C635.216 236.691 634.715 237.325 634.068 237.826C633.421 238.318 632.664 238.729 631.798 239.057L630.376 239.877H623.964L623.937 236.281H628.64C629.305 236.281 629.861 236.172 630.308 235.953C630.764 235.725 631.101 235.406 631.32 234.996C631.538 234.577 631.648 234.08 631.648 233.506C631.648 232.631 631.402 231.943 630.909 231.441C630.417 230.94 629.665 230.689 628.654 230.689H625.523V247H621.079V227.094H628.654ZM627.587 238.168L632.304 238.141L636.816 246.795V247H632.058L627.587 238.168ZM662.491 240.301C662.409 241.659 662.035 242.867 661.37 243.924C660.714 244.972 659.793 245.792 658.608 246.385C657.423 246.977 656.01 247.273 654.37 247.273C652.638 247.273 651.148 246.886 649.899 246.111C648.66 245.327 647.707 244.215 647.042 242.775C646.376 241.326 646.044 239.608 646.044 237.621V236.486C646.044 234.49 646.385 232.772 647.069 231.332C647.762 229.892 648.732 228.78 649.981 227.996C651.23 227.203 652.697 226.807 654.384 226.807C656.079 226.807 657.505 227.117 658.663 227.736C659.82 228.356 660.718 229.204 661.356 230.279C661.994 231.355 662.377 232.572 662.505 233.93H658.075C658.002 232.799 657.697 231.938 657.159 231.346C656.621 230.753 655.696 230.457 654.384 230.457C653.518 230.457 652.802 230.667 652.237 231.086C651.672 231.496 651.248 232.143 650.966 233.027C650.692 233.911 650.555 235.055 650.555 236.459V237.621C650.555 239.007 650.678 240.141 650.925 241.025C651.18 241.91 651.585 242.566 652.141 242.994C652.706 243.423 653.449 243.637 654.37 243.637C655.172 243.637 655.837 243.518 656.366 243.281C656.895 243.035 657.296 242.666 657.569 242.174C657.842 241.673 658.002 241.048 658.048 240.301H662.491ZM686.033 247H675.52V243.418H686.033V247ZM676.983 247H672.526V227.094H676.983V247ZM684.666 238.51H675.52V235.037H684.666V238.51ZM686.033 230.689H675.52V227.094H686.033V230.689ZM720.636 241.736C720.636 241.299 720.545 240.921 720.362 240.602C720.18 240.283 719.825 239.977 719.296 239.686C718.767 239.394 717.983 239.084 716.944 238.756C716.051 238.464 715.199 238.136 714.388 237.771C713.586 237.398 712.87 236.965 712.241 236.473C711.621 235.971 711.129 235.393 710.765 234.736C710.409 234.071 710.231 233.296 710.231 232.412C710.231 231.282 710.55 230.302 711.189 229.473C711.836 228.634 712.72 227.982 713.841 227.518C714.971 227.053 716.261 226.82 717.71 226.82C719.187 226.82 720.476 227.08 721.579 227.6C722.682 228.11 723.543 228.83 724.163 229.76C724.783 230.689 725.093 231.765 725.093 232.986H720.649C720.649 232.467 720.54 232.011 720.321 231.619C720.112 231.218 719.784 230.908 719.337 230.689C718.89 230.462 718.321 230.348 717.628 230.348C716.972 230.348 716.42 230.443 715.974 230.635C715.536 230.817 715.208 231.068 714.989 231.387C714.78 231.697 714.675 232.052 714.675 232.453C714.675 232.863 714.821 233.223 715.112 233.533C715.413 233.843 715.846 234.13 716.411 234.395C716.976 234.65 717.655 234.905 718.448 235.16C719.897 235.607 721.114 236.126 722.099 236.719C723.083 237.311 723.826 238.013 724.327 238.824C724.828 239.635 725.079 240.597 725.079 241.709C725.079 242.876 724.778 243.878 724.177 244.717C723.584 245.546 722.741 246.18 721.647 246.617C720.554 247.055 719.269 247.273 717.792 247.273C716.789 247.273 715.805 247.146 714.839 246.891C713.873 246.626 712.993 246.221 712.2 245.674C711.416 245.127 710.792 244.434 710.327 243.596C709.862 242.757 709.63 241.764 709.63 240.615H714.087C714.087 241.199 714.169 241.691 714.333 242.092C714.506 242.493 714.752 242.821 715.071 243.076C715.399 243.322 715.791 243.5 716.247 243.609C716.712 243.719 717.227 243.773 717.792 243.773C718.457 243.773 718.995 243.682 719.405 243.5C719.825 243.318 720.134 243.072 720.335 242.762C720.536 242.452 720.636 242.11 720.636 241.736ZM742.346 235.816L746.243 227.094H751.069L744.602 239.822V247H740.104V239.822L733.624 227.094H738.463L742.346 235.816ZM766.107 227.094L770.906 241.107L775.691 227.094H779.41L772.396 247H769.402L762.389 227.094H766.107ZM764.07 227.094L764.754 242.078V247H760.297V227.094H764.07ZM781.516 227.094V247H777.045V242.078L777.742 227.094H781.516ZM795.31 240.15V236.568H800.3C801.029 236.568 801.617 236.45 802.064 236.213C802.52 235.976 802.852 235.652 803.062 235.242C803.281 234.823 803.39 234.344 803.39 233.807C803.39 233.26 803.281 232.749 803.062 232.275C802.852 231.801 802.52 231.419 802.064 231.127C801.617 230.835 801.029 230.689 800.3 230.689H796.868V247H792.411V227.094H800.3C801.877 227.094 803.23 227.385 804.361 227.969C805.5 228.543 806.37 229.331 806.972 230.334C807.583 231.337 807.888 232.485 807.888 233.779C807.888 235.064 807.583 236.186 806.972 237.143C806.37 238.1 805.5 238.842 804.361 239.371C803.23 239.891 801.877 240.15 800.3 240.15H795.31ZM834.725 237.443C834.725 239.485 834.361 241.24 833.632 242.707C832.912 244.174 831.904 245.305 830.61 246.098C829.325 246.882 827.844 247.273 826.167 247.273C824.49 247.273 822.999 246.882 821.696 246.098C820.402 245.305 819.386 244.174 818.647 242.707C817.918 241.24 817.554 239.485 817.554 237.443V236.664C817.554 234.622 817.918 232.868 818.647 231.4C819.376 229.933 820.388 228.803 821.682 228.01C822.977 227.217 824.462 226.82 826.139 226.82C827.817 226.82 829.302 227.217 830.596 228.01C831.891 228.803 832.902 229.933 833.632 231.4C834.361 232.868 834.725 234.622 834.725 236.664V237.443ZM830.227 236.637C830.227 235.288 830.068 234.158 829.749 233.246C829.43 232.335 828.965 231.646 828.354 231.182C827.744 230.708 827.005 230.471 826.139 230.471C825.255 230.471 824.513 230.708 823.911 231.182C823.309 231.646 822.849 232.335 822.53 233.246C822.22 234.158 822.065 235.288 822.065 236.637V237.443C822.065 238.774 822.225 239.9 822.544 240.82C822.863 241.741 823.323 242.443 823.925 242.926C824.535 243.4 825.283 243.637 826.167 243.637C827.033 243.637 827.766 243.4 828.368 242.926C828.979 242.443 829.439 241.741 829.749 240.82C830.068 239.9 830.227 238.774 830.227 237.443V236.637ZM855.315 241.736C855.315 241.299 855.224 240.921 855.041 240.602C854.859 240.283 854.503 239.977 853.975 239.686C853.446 239.394 852.662 239.084 851.623 238.756C850.73 238.464 849.878 238.136 849.067 237.771C848.265 237.398 847.549 236.965 846.92 236.473C846.3 235.971 845.808 235.393 845.444 234.736C845.088 234.071 844.91 233.296 844.91 232.412C844.91 231.282 845.229 230.302 845.867 229.473C846.515 228.634 847.399 227.982 848.52 227.518C849.65 227.053 850.94 226.82 852.389 226.82C853.865 226.82 855.155 227.08 856.258 227.6C857.361 228.11 858.222 228.83 858.842 229.76C859.462 230.689 859.772 231.765 859.772 232.986H855.328C855.328 232.467 855.219 232.011 855 231.619C854.791 231.218 854.462 230.908 854.016 230.689C853.569 230.462 853 230.348 852.307 230.348C851.651 230.348 851.099 230.443 850.653 230.635C850.215 230.817 849.887 231.068 849.668 231.387C849.459 231.697 849.354 232.052 849.354 232.453C849.354 232.863 849.5 233.223 849.791 233.533C850.092 233.843 850.525 234.13 851.09 234.395C851.655 234.65 852.334 234.905 853.127 235.16C854.576 235.607 855.793 236.126 856.778 236.719C857.762 237.311 858.505 238.013 859.006 238.824C859.507 239.635 859.758 240.597 859.758 241.709C859.758 242.876 859.457 243.878 858.856 244.717C858.263 245.546 857.42 246.18 856.326 246.617C855.233 247.055 853.948 247.273 852.471 247.273C851.468 247.273 850.484 247.146 849.518 246.891C848.552 246.626 847.672 246.221 846.879 245.674C846.095 245.127 845.471 244.434 845.006 243.596C844.541 242.757 844.309 241.764 844.309 240.615H848.766C848.766 241.199 848.848 241.691 849.012 242.092C849.185 242.493 849.431 242.821 849.75 243.076C850.078 243.322 850.47 243.5 850.926 243.609C851.391 243.719 851.906 243.773 852.471 243.773C853.136 243.773 853.674 243.682 854.084 243.5C854.503 243.318 854.813 243.072 855.014 242.762C855.214 242.452 855.315 242.11 855.315 241.736ZM874.687 247H870.258V227.094H874.687V247ZM901.155 227.094V240.15C901.155 241.691 900.827 242.994 900.171 244.061C899.515 245.118 898.603 245.92 897.437 246.467C896.279 247.005 894.948 247.273 893.444 247.273C891.931 247.273 890.587 247.005 889.411 246.467C888.245 245.92 887.333 245.118 886.677 244.061C886.021 242.994 885.693 241.691 885.693 240.15V227.094H890.15V240.15C890.15 240.98 890.277 241.659 890.532 242.188C890.797 242.707 891.175 243.09 891.667 243.336C892.159 243.573 892.752 243.691 893.444 243.691C894.146 243.691 894.739 243.573 895.222 243.336C895.705 243.09 896.069 242.707 896.316 242.188C896.571 241.659 896.698 240.98 896.698 240.15V227.094H901.155ZM917.698 227.094L922.497 241.107L927.282 227.094H931.001L923.987 247H920.993L913.979 227.094H917.698ZM915.661 227.094L916.344 242.078V247H911.887V227.094H915.661ZM933.106 227.094V247H928.635V242.078L929.333 227.094H933.106Z" fill="url(#paint4_linear_3_5)"/>
<defs>
<linearGradient id="paint0_linear_3_5" x1="96" y1="118" x2="238" y2="118" gradientUnits="userSpaceOnUse">
<stop stop-color="#FBB33F"/>
<stop offset="1" stop-color="#F9EC32"/>
</linearGradient>
<linearGradient id="paint1_linear_3_5" x1="-0.0849671" y1="118" x2="167" y2="118" gradientUnits="userSpaceOnUse">
<stop stop-color="#FBB140"/>
<stop offset="1" stop-color="#F9EC32"/>
</linearGradient>
<linearGradient id="paint2_linear_3_5" x1="46.9723" y1="118" x2="164.243" y2="118" gradientUnits="userSpaceOnUse">
<stop stop-color="#FBB33F"/>
<stop offset="1" stop-color="#F9EA32"/>
</linearGradient>
<linearGradient id="paint3_linear_3_5" x1="320" y1="105.503" x2="962" y2="105.503" gradientUnits="userSpaceOnUse">
<stop stop-color="#FBB040"/>
<stop offset="1" stop-color="#F9ED32"/>
</linearGradient>
<linearGradient id="paint4_linear_3_5" x1="329" y1="238.5" x2="935" y2="238.5" gradientUnits="userSpaceOnUse">
<stop stop-color="#FBB040"/>
<stop offset="1" stop-color="#F9EC32"/>
</linearGradient>
</defs>
</svg>
